<svg id="Layer_1" data-name="Layer 1" xmlns="http://www.w3.org/2000/svg" viewBox="0 0 792 612"><defs><style>.cls-1{fill:#231f20;opacity:0.11;}</style></defs><title>Artboard 1</title><path class="cls-1" d="M67.51,306.09l18.5-.37q14.51.38,29,.43c13.05.1,26.1.09,39.15.05q44.13-.12,88.25-.47,93.2-.65,186.39-1.81,181.5-2.23,363-6.26,4.66-1.2,3.75-5.93a23,23,0,0,0-10.86-11.19A269.69,269.69,0,0,0,760,264.91a23,23,0,0,0-14.76-5q-181.3,3.68-362.63,5.66-88.21.94-176.42,1.46c-29.38.17-58.76.37-88.13.32-12.94,0-25.89,0-38.82-.37q-13.86-.16-27.63-1.66a158.75,158.75,0,0,0-24.88-1.05q-4.7.72-4.4,5.46a22,22,0,0,0,9.22,12.11,256.08,256.08,0,0,0,22.15,17.85A22,22,0,0,0,67.51,306.09Z"/><path class="cls-1" d="M34.93,282.69q43.29,1,86.59,1,44.12-.08,88.23-.44,93.19-.63,186.37-1.79,181.48-2.21,362.93-6.22,4.81-1.09,3.78-5.91a25.26,25.26,0,0,0-11.51-11.68,299.87,299.87,0,0,0-25.95-16.57,25.26,25.26,0,0,0-15.44-5.54q-181.33,3.68-362.69,5.67-88.22.94-176.45,1.46c-29.38.17-58.76.37-88.14.31-12.93,0-25.87-.07-38.8-.42q-13.76-.27-27.44-1.67-13.73-1.06-27.34-3.14-4.94.58-4.34,5.51A26,26,0,0,0-4.73,256.15,310.22,310.22,0,0,0,19.89,275.5,26,26,0,0,0,34.93,282.69Z"/><path class="cls-1" d="M31.74,234.5l38.06,21.33q5.1,3.11,11-.48a72.47,72.47,0,0,1,17.76-2.18,233,233,0,0,1,29-.6q44.12-.17,88.23-.55,93.21-.65,186.42-1.8,186.44-2.3,372.85-6.47c3.71-.08,8.88-3.88,8.91-7.93a17,17,0,0,0-9.51-10.68q-181.42,4-362.87,6.37-88.27,1.11-176.54,1.79-44.11.34-88.22.59l-19.59.1-19.72-.06c-17.41.49-20.61,2-36.74,6.71l5.18.42L36.69,218.35a4.85,4.85,0,0,0-5.8-1.14,12.42,12.42,0,0,0-5.31,4.59,4.85,4.85,0,0,0,.29,5.91A25.64,25.64,0,0,0,31.74,234.5Z"/><path class="cls-1" d="M65.79,271.31l16.63-2.64-4.28.63c58.51,1.71,117.1.82,175.62.39Q342,269,430.31,267.93q176.56-2.2,353.09-6.08,6.16.72,4.61-5.28a51.14,51.14,0,0,0-15.35-18.24q-16.56-15.51-34.16-29.83a51.14,51.14,0,0,0-20.14-12.75q-181.07,3.63-362.18,5.57-88.1.92-176.2,1.4c-29.27.15-58.55.37-87.82.09-12.72-.12-25.45-.31-38.16-.9q-13.34-.55-26.57-2.32a57.33,57.33,0,0,0-23.21.28L0,200.41l-.85,4.24,3.37,7.24a234.82,234.82,0,0,0,17.35,20.72C29.1,243,38.54,253.14,48.73,262.57A25.17,25.17,0,0,0,58,269.89,6.69,6.69,0,0,0,65.79,271.31Z"/><path class="cls-1" d="M62.27,235.83l28.12,12.45q14,.86,27.93.63c13,0,26.07-.2,39.1-.25q44.11-.18,88.22-.51,93.17-.67,186.34-1.85Q613.43,244,794.85,240a8.25,8.25,0,0,0,9-7.8,30,30,0,0,0-12.58-14.54Q615,221.55,438.62,223.9q-83.27,1.08-166.55,1.78-44.09.37-88.18.62c-16.38.09-32.76.13-49.13.27q-9.57,0-19.13.23-14.33.42-28.66-.31l3,.1L59.3,210.33c-4.42-2.34-9.88,2.25-9.85,6.73a30.54,30.54,0,0,0,5.1,10.28A30.54,30.54,0,0,0,62.27,235.83Z"/><path class="cls-1" d="M8.31,266.43l40.45,16.34a14.21,14.21,0,0,0,11.13-.48,88.6,88.6,0,0,1,17.49-1.71,288.3,288.3,0,0,1,29-.46c29.42-.08,58.84-.3,88.27-.5q93.21-.65,186.42-1.8,186.44-2.31,372.85-6.48a9.86,9.86,0,0,0,7.23-9.49A18.93,18.93,0,0,0,749,252.67q-176.54,3.89-353.11,6.17-83.37,1-166.75,1.72-44.13.35-88.26.59c-16.37.1-32.74.2-49.11.15a131.23,131.23,0,0,0-18.92.6,83.55,83.55,0,0,0-24.37,4l2.89.76L9.55,249.23A5.14,5.14,0,0,0,3.36,249,11.59,11.59,0,0,0-1,254.53a5.14,5.14,0,0,0,1.69,6A29.58,29.58,0,0,0,8.31,266.43Z"/><path class="cls-1" d="M45.45,311.26l20.71,1.59q14.35.33,28.71.39c13.07.09,26.13.06,39.2,0q44.14-.15,88.28-.48,93.22-.63,186.43-1.78,181.54-2.21,363.05-6.21a6.25,6.25,0,0,0,5.37-10.65,86.9,86.9,0,0,0-29.48-14.85q-181.46,3.79-362.94,5.88-88.28,1-176.56,1.56-44.12.28-88.25.44c-13,0-26.07.1-39.11,0q-14.08,0-28.14-.79a140.22,140.22,0,0,1-29.62-3.67,6.19,6.19,0,0,0-6.46,10A67.74,67.74,0,0,0,30.2,303.31,67.74,67.74,0,0,0,45.45,311.26Z"/><path class="cls-1" d="M80.47,269.19l18.27-.77q14.3.47,28.61.6c13,.17,26,.2,39,.18q44.1,0,88.2-.42,93.19-.63,186.37-1.79,181.48-2.22,362.93-6.23,5.27.37,5-4.91a31.78,31.78,0,0,0-10.13-15.54q-11.69-13.06-24.52-25a31.78,31.78,0,0,0-15.34-10.44q-181.08,3.79-362.2,5.88-88.1,1-176.21,1.56c-29.29.18-58.59.41-87.89.26-12.75-.07-25.5-.17-38.24-.64q-13.19-.36-26.28-2a105.89,105.89,0,0,0-23.76-.82q-5.12-1-5.62,4.2a30.51,30.51,0,0,0,7.74,16.42Q56,243.91,66.9,257.14A30.51,30.51,0,0,0,80.47,269.19Z"/><path class="cls-1" d="M21.42,250l33.09,12.89a197.53,197.53,0,0,0,28.9,1.54q19.35.07,38.69-.05,44.14-.24,88.28-.52,93.22-.66,186.43-1.83,181.54-2.26,363-6.31a7.74,7.74,0,0,0,7.36-9.38,36.16,36.16,0,0,0-16.64-13.06q-181.42,4-362.88,6.23-88.27,1.08-176.54,1.72-44.12.32-88.25.52-19.6.1-39.2.14a130.47,130.47,0,0,1-26.67-1q-23.78-1.12-44.15-15.56a6.55,6.55,0,0,0-6.35,2.18,6.55,6.55,0,0,0-1.9,6.44,31.79,31.79,0,0,0,7.29,9.17A31.79,31.79,0,0,0,21.42,250Z"/><path class="cls-1" d="M47.56,245.15l22.58,4.65q13.94-.23,27.88,0c13,.15,26,.15,39,.11q44.12-.13,88.23-.47,93.18-.64,186.36-1.8,181.47-2.22,362.91-6.25,4.67-.39,4.85-5.07a20.84,20.84,0,0,0-7.83-12.52,240.12,240.12,0,0,0-19.92-19,20.84,20.84,0,0,0-12.86-7.25q-181.2,3.85-362.43,6-88.16,1-176.33,1.62c-29.37.2-58.75.4-88.12.44-12.94,0-25.89.05-38.83-.2Q59.5,205.18,46,204.18a69.5,69.5,0,0,1-30.23-7.1q-4.72-.13-5.34,4.55a21.51,21.51,0,0,0,6.69,13.45,249.12,249.12,0,0,0,18.21,21.35A21.51,21.51,0,0,0,47.56,245.15Z"/><path class="cls-1" d="M78.49,289.39l17.6-1.5q14.45.49,28.91.59c13,.15,26,.17,39.05.15q44.11-.06,88.22-.42,93.19-.63,186.38-1.8,181.49-2.22,362.95-6.25,5.4,0,4.51-5.37A34,34,0,0,0,794,259.84q-13.43-12.3-27.87-23.39a34,34,0,0,0-16.81-9.36Q568.16,230.78,387,232.77q-88.13.95-176.26,1.46c-29.3.16-58.61.38-87.91.18-12.77-.09-25.56-.22-38.33-.74a256.73,256.73,0,0,1-26.67-2.17,55.66,55.66,0,0,0-22.82.32q-5.27-.54-5.16,4.75a32.08,32.08,0,0,0,9.71,15.92Q50.91,266,63.42,278.4A32.08,32.08,0,0,0,78.49,289.39Z"/><path class="cls-1" d="M18.1,287.13l31.6,8.23H76.94c13,0,26.08-.07,39.11-.12q44.15-.2,88.3-.5,93.25-.65,186.49-1.82,181.6-2.24,363.17-6.29c4.52-.1,7.59-6.57,5.92-10.35a31.54,31.54,0,0,0-17.12-9.79q-176.67,3.81-353.37,6-83.43,1-166.87,1.65-44.16.33-88.32.55c-31,.15-61.91.11-92.87.46l3.78,1.16L5.55,264a6.53,6.53,0,0,0-5.94,3.15,6.53,6.53,0,0,0-.82,6.67,32.38,32.38,0,0,0,8.76,7.94A32.38,32.38,0,0,0,18.1,287.13Z"/></svg>