<?xml version="1.0" encoding="utf-8"?>
<!-- Generator: Adobe Illustrator 20.1.0, SVG Export Plug-In . SVG Version: 6.00 Build 0)  -->
<svg version="1.1" id="Layer_1" xmlns="http://www.w3.org/2000/svg" xmlns:xlink="http://www.w3.org/1999/xlink" x="0px" y="0px"
	 viewBox="0 0 792 612" style="enable-background:new 0 0 792 612;" xml:space="preserve">
<style type="text/css">
	.st0{opacity:0.1091;}
</style>
<g>
	<g>
		<g>
			<path class="st0" d="M67.5,306.1c6.2-0.1,12.3-0.2,18.5-0.4c9.7,0.3,19.3,0.4,29,0.4c13.1,0.1,26.1,0.1,39.2,0.1
				c29.4-0.1,58.8-0.3,88.3-0.5c62.1-0.4,124.3-1,186.4-1.8c121-1.5,242-3.6,363-6.3c3.1-0.8,4.4-2.8,3.8-5.9
				c-2.3-4.9-5.9-8.7-10.9-11.2c-7.9-5.7-16.2-10.9-24.7-15.6c-4.4-3.4-9.3-5.1-14.8-5c-120.9,2.5-241.7,4.4-362.6,5.7
				c-58.8,0.6-117.6,1.1-176.4,1.5c-29.4,0.2-58.8,0.4-88.1,0.3c-12.9,0-25.9,0-38.8-0.4c-9.2-0.1-18.5-0.7-27.6-1.7
				c-8.3-1-16.6-1.4-24.9-1.1c-3.1,0.5-4.6,2.3-4.4,5.5c1.6,5.1,4.6,9.1,9.2,12.1c7.1,6.4,14.4,12.3,22.2,17.9
				C57.6,303.5,62.2,305.6,67.5,306.1z"/>
			<path class="st0" d="M34.9,282.7c28.9,0.7,57.7,1,86.6,1c29.4-0.1,58.8-0.2,88.2-0.4c62.1-0.4,124.3-1,186.4-1.8
				c121-1.5,242-3.6,362.9-6.2c3.2-0.7,4.5-2.7,3.8-5.9c-2.5-5.1-6.3-9-11.5-11.7c-8.4-6-17-11.5-25.9-16.6
				c-4.6-3.6-9.8-5.4-15.4-5.5c-120.9,2.5-241.8,4.4-362.7,5.7c-58.8,0.6-117.6,1.1-176.4,1.5c-29.4,0.2-58.8,0.4-88.1,0.3
				c-12.9,0-25.9-0.1-38.8-0.4c-9.2-0.2-18.3-0.7-27.4-1.7c-9.2-0.7-18.3-1.8-27.3-3.1c-3.3,0.4-4.7,2.2-4.3,5.5
				c2,5.4,5.5,9.7,10.5,12.9c7.9,6.9,16.1,13.3,24.6,19.4C24.2,279.6,29.2,282,34.9,282.7z"/>
			<path class="st0" d="M31.7,234.5c12.7,7.1,25.4,14.2,38.1,21.3c3.4,2.1,7.1,1.9,11-0.5c5.8-1.5,11.7-2.2,17.8-2.2
				c9.6-0.8,19.3-1,29-0.6c29.4-0.1,58.8-0.3,88.2-0.5c62.1-0.4,124.3-1,186.4-1.8c124.3-1.5,248.6-3.7,372.8-6.5
				c3.7-0.1,8.9-3.9,8.9-7.9c-0.6-2.5-1.8-4.6-3.6-6.4c-1.6-2-3.6-3.4-5.9-4.3c-120.9,2.7-241.9,4.8-362.9,6.4
				c-58.8,0.7-117.7,1.3-176.5,1.8c-29.4,0.2-58.8,0.4-88.2,0.6c-6.5,0-13.1,0.1-19.6,0.1c-6.6,0-13.1,0-19.7-0.1
				c-17.4,0.5-20.6,2-36.7,6.7c1.7,0.1,3.5,0.3,5.2,0.4c-13.1-7.6-26.2-15.1-39.2-22.7c-1.7-1.7-3.6-2.1-5.8-1.1
				c-2.2,1-4,2.5-5.3,4.6c-1.2,2-1.1,4,0.3,5.9C27.4,230.3,29.4,232.6,31.7,234.5z"/>
			<path class="st0" d="M65.8,271.3c5.5-0.9,11.1-1.8,16.6-2.6c-1.4,0.2-2.9,0.4-4.3,0.6c58.5,1.7,117.1,0.8,175.6,0.4
				c58.9-0.4,117.7-1,176.6-1.8c117.7-1.5,235.4-3.5,353.1-6.1c4.1,0.5,5.6-1.3,4.6-5.3c-3.6-7.2-8.7-13.3-15.3-18.2
				c-11-10.3-22.4-20.3-34.2-29.8c-5.8-5.9-12.5-10.1-20.1-12.7c-120.7,2.4-241.4,4.3-362.2,5.6c-58.7,0.6-117.5,1.1-176.2,1.4
				c-29.3,0.2-58.5,0.4-87.8,0.1c-12.7-0.1-25.5-0.3-38.2-0.9c-8.9-0.4-17.7-1.1-26.6-2.3c-7.7-1.5-15.4-1.4-23.2,0.3
				c-1.4,0.2-2.9,0.4-4.3,0.5c-0.3,1.4-0.6,2.8-0.8,4.2c1.1,2.4,2.2,4.8,3.4,7.2c5.4,7.2,11.2,14.1,17.4,20.7
				c9.3,10.3,18.7,20.5,28.9,29.9c2.5,3.2,5.6,5.6,9.3,7.3C60.3,272.1,62.9,272.5,65.8,271.3z"/>
			<path class="st0" d="M62.3,235.8c9.4,4.1,18.7,8.3,28.1,12.4c9.3,0.6,18.6,0.8,27.9,0.6c13,0,26.1-0.2,39.1-0.2
				c29.4-0.1,58.8-0.3,88.2-0.5c62.1-0.4,124.2-1.1,186.3-1.9c121-1.5,241.9-3.7,362.9-6.3c2.4,0.4,4.4-0.3,6.2-2
				c1.9-1.5,2.9-3.4,2.8-5.8c-1.1-3.1-2.8-5.9-5.1-8.3c-2-2.6-4.5-4.7-7.5-6.2c-117.5,2.6-235.1,4.8-352.7,6.3
				c-55.5,0.7-111,1.3-166.6,1.8c-29.4,0.2-58.8,0.5-88.2,0.6c-16.4,0.1-32.8,0.1-49.1,0.3c-6.4,0-12.8,0.1-19.1,0.2
				c-9.6,0.3-19.1,0.2-28.7-0.3c1,0,2,0.1,3,0.1c-10.2-5.4-20.5-10.8-30.7-16.3c-4.4-2.3-9.9,2.3-9.9,6.7c1,3.7,2.7,7.2,5.1,10.3
				C56.6,230.7,59.2,233.5,62.3,235.8z"/>
			<path class="st0" d="M8.3,266.4c13.5,5.4,27,10.9,40.5,16.3c3.6,1.4,7.3,1.2,11.1-0.5c5.8-1.1,11.6-1.7,17.5-1.7
				c9.6-0.6,19.3-0.8,29-0.5c29.4-0.1,58.8-0.3,88.3-0.5c62.1-0.4,124.3-1,186.4-1.8c124.3-1.5,248.6-3.7,372.8-6.5
				c2.2-0.4,3.9-1.6,5.2-3.5c1.5-1.7,2.2-3.7,2-6c-1.1-2.4-2.8-4.4-5.1-5.8c-2-1.8-4.4-2.9-7-3.3c-117.7,2.6-235.4,4.7-353.1,6.2
				c-55.6,0.7-111.2,1.3-166.8,1.7c-29.4,0.2-58.8,0.4-88.3,0.6c-16.4,0.1-32.7,0.2-49.1,0.2c-6.3-0.3-12.6-0.1-18.9,0.6
				c-8.3,0.1-16.4,1.5-24.4,4c1,0.3,1.9,0.5,2.9,0.8c-14-5.8-27.9-11.6-41.9-17.5c-2.1-1.5-4.1-1.5-6.2-0.2c-2,1.4-3.5,3.2-4.3,5.5
				c-0.8,2.3-0.2,4.3,1.7,6C2.9,262.9,5.5,264.9,8.3,266.4z"/>
			<path class="st0" d="M45.5,311.3c6.9,0.5,13.8,1.1,20.7,1.6c9.6,0.2,19.1,0.4,28.7,0.4c13.1,0.1,26.1,0.1,39.2,0
				c29.4-0.1,58.9-0.3,88.3-0.5c62.1-0.4,124.3-1,186.4-1.8c121-1.5,242-3.6,363.1-6.2c2.9,0.3,5.1-0.8,6.6-3.4
				c1.2-2.7,0.8-5.1-1.2-7.3c-4.3-3.6-9-6.5-14-8.8c-4.9-2.7-10-4.7-15.5-6c-121,2.5-242,4.5-362.9,5.9
				c-58.9,0.7-117.7,1.2-176.6,1.6c-29.4,0.2-58.8,0.4-88.2,0.4c-13,0-26.1,0.1-39.1,0c-9.4,0-18.8-0.3-28.1-0.8
				c-10-0.2-19.9-1.4-29.6-3.7c-2.9-0.7-5.3,0.2-7,2.6c-1.4,2.6-1.2,5.1,0.6,7.5c4.1,4.1,8.6,7.6,13.5,10.6
				C35,306.6,40,309.3,45.5,311.3z"/>
			<path class="st0" d="M80.5,269.2c6.1-0.3,12.2-0.5,18.3-0.8c9.5,0.3,19.1,0.5,28.6,0.6c13,0.2,26,0.2,39,0.2
				c29.4,0,58.8-0.2,88.2-0.4c62.1-0.4,124.2-1,186.4-1.8c121-1.5,242-3.6,362.9-6.2c3.5,0.2,5.2-1.4,5-4.9
				c-1.8-6.1-5.2-11.3-10.1-15.5c-7.8-8.7-16-17-24.5-25c-4.1-5.1-9.3-8.5-15.3-10.4c-120.7,2.5-241.5,4.5-362.2,5.9
				c-58.7,0.7-117.5,1.2-176.2,1.6c-29.3,0.2-58.6,0.4-87.9,0.3c-12.7-0.1-25.5-0.2-38.2-0.6c-8.8-0.2-17.6-0.9-26.3-2
				c-7.9-1.2-15.8-1.4-23.8-0.8c-3.4-0.7-5.3,0.7-5.6,4.2c0.9,6.2,3.5,11.7,7.7,16.4c6.4,9.5,13.3,18.6,20.5,27.4
				C70.3,262.6,74.8,266.6,80.5,269.2z"/>
			<path class="st0" d="M21.4,250c11,4.3,22.1,8.6,33.1,12.9c9.6,1.2,19.2,1.7,28.9,1.5c12.9,0,25.8,0,38.7-0.1
				c29.4-0.2,58.9-0.3,88.3-0.5c62.1-0.4,124.3-1.1,186.4-1.8c121-1.5,242-3.6,363-6.3c2.5,0,4.4-0.9,5.9-3c1.6-1.9,2.1-4,1.5-6.4
				c-1.9-3.1-4.4-5.7-7.3-7.8c-2.8-2.4-5.9-4.2-9.3-5.3c-120.9,2.6-241.9,4.8-362.9,6.2c-58.8,0.7-117.7,1.3-176.5,1.7
				c-29.4,0.2-58.8,0.4-88.2,0.5c-13.1,0.1-26.1,0.1-39.2,0.1c-8.9,0.6-17.8,0.3-26.7-1c-15.9-0.7-30.6-5.9-44.2-15.6
				c-2.5-0.4-4.6,0.3-6.3,2.2c-1.8,1.8-2.5,4-1.9,6.4c1.9,3.5,4.3,6.6,7.3,9.2C14.7,246,17.8,248.3,21.4,250z"/>
			<path class="st0" d="M47.6,245.1c7.5,1.6,15.1,3.1,22.6,4.7c9.3-0.2,18.6-0.1,27.9,0c13,0.2,26,0.2,39,0.1
				c29.4-0.1,58.8-0.3,88.2-0.5c62.1-0.4,124.2-1,186.4-1.8c121-1.5,241.9-3.6,362.9-6.2c3.1-0.3,4.7-2,4.8-5.1
				c-1-5-3.6-9.2-7.8-12.5c-6.3-6.7-12.9-13.1-19.9-19c-3.5-4-7.8-6.4-12.9-7.2c-120.8,2.6-241.6,4.6-362.4,6
				c-58.8,0.7-117.6,1.2-176.3,1.6c-29.4,0.2-58.7,0.4-88.1,0.4c-12.9,0-25.9,0.1-38.8-0.2c-9-0.2-18-0.6-27.1-1.2
				c-10.5-0.1-20.6-2.4-30.2-7.1c-3.1-0.1-4.9,1.4-5.3,4.6c0.6,5.2,2.8,9.7,6.7,13.5c5.7,7.5,11.7,14.6,18.2,21.3
				C38.4,240.9,42.5,243.8,47.6,245.1z"/>
			<path class="st0" d="M78.5,289.4c5.9-0.5,11.7-1,17.6-1.5c9.6,0.3,19.3,0.5,28.9,0.6c13,0.1,26,0.2,39.1,0.1
				c29.4,0,58.8-0.2,88.2-0.4c62.1-0.4,124.3-1,186.4-1.8c121-1.5,242-3.6,362.9-6.2c3.6,0,5.1-1.8,4.5-5.4
				c-2.6-6.1-6.6-11.1-12.1-14.9c-9-8.2-18.2-16-27.9-23.4c-4.8-4.8-10.4-7.9-16.8-9.4c-120.8,2.5-241.5,4.4-362.3,5.7
				c-58.8,0.6-117.5,1.1-176.3,1.5c-29.3,0.2-58.6,0.4-87.9,0.2c-12.8-0.1-25.6-0.2-38.3-0.7c-8.9-0.3-17.8-1-26.7-2.2
				c-7.6-1.5-15.2-1.4-22.8,0.3c-3.5-0.4-5.2,1.2-5.2,4.8c1.6,6.2,4.9,11.5,9.7,15.9c7.6,9,15.5,17.6,23.9,25.9
				C67.4,283.6,72.4,287.3,78.5,289.4z"/>
			<path class="st0" d="M18.1,287.1c10.5,2.7,21.1,5.5,31.6,8.2c9.1,0,18.2,0,27.2,0c13,0,26.1-0.1,39.1-0.1
				c29.4-0.1,58.9-0.3,88.3-0.5c62.2-0.4,124.3-1.1,186.5-1.8c121.1-1.5,242.1-3.6,363.2-6.3c4.5-0.1,7.6-6.6,5.9-10.4
				c-2.1-2.6-4.7-4.7-7.8-6.3c-2.9-1.9-6-3-9.3-3.5c-117.8,2.5-235.6,4.6-353.4,6c-55.6,0.7-111.2,1.2-166.9,1.7
				c-29.4,0.2-58.9,0.4-88.3,0.6c-31,0.2-61.9,0.1-92.9,0.5c1.3,0.4,2.5,0.8,3.8,1.2C32,272.2,18.8,268.1,5.6,264
				C3,264,1,265-0.4,267.2c-1.5,2.1-1.8,4.3-0.8,6.7c2.4,3.2,5.3,5.8,8.8,7.9C10.7,284.2,14.3,286,18.1,287.1z"/>
		</g>
	</g>
</g>
</svg>
